<svg width="42" height="42" viewBox="0 0 42 42" fill="none" xmlns="http://www.w3.org/2000/svg">
<g clip-path="url(#clip0_1565_15243)">
<path d="M13.6099 20.9971H29.6946V24.6127H17.2286C15.232 24.6127 13.6129 22.9936 13.6129 20.9971H13.6099Z" fill="black"/>
<path d="M18.3389 27.0049H29.6941V30.6205H21.9576C19.961 30.6205 18.3419 29.0014 18.3419 27.0049H18.3389Z" fill="black"/>
<path d="M26.0088 36.5582C26.0088 36.5582 26.0123 36.5582 26.0228 36.5547L26.0088 36.5582Z" fill="black"/>
<path d="M40.6914 24.2229C40.6914 33.4386 27.6227 36.2934 26.0219 36.2934C26.4388 36.0742 37.091 30.8516 37.091 24.2229C37.091 21.0516 35.2497 18.559 31.0223 18.559H12.7219C11.7236 18.559 10.8197 18.1542 10.1653 17.4999C9.51098 16.8455 9.1062 15.9416 9.1062 14.9434H30.5962C39.3523 14.9434 40.6945 21.7455 40.6945 24.2229H40.6914Z" fill="black"/>
<path d="M26.0088 36.5582C26.0088 36.5582 26.0123 36.5582 26.0228 36.5547L26.0088 36.5582Z" fill="black"/>
<path d="M21 3.37779C28.837 3.37779 35.4839 8.49692 37.7726 15.5761C39.7844 16.9913 40.947 18.9695 41.5435 20.8839C41.4796 9.58953 32.3065 0.456055 21 0.456055C9.6935 0.456055 0.456543 9.65345 0.456543 21.0026C0.456543 32.3517 9.65089 41.543 21 41.543C27.9848 41.543 34.157 38.0582 37.867 32.7291C34.3 35.7452 29.4031 37.1178 27.1265 37.5256C25.2183 38.2348 23.1548 38.6213 21 38.6213C11.267 38.6213 3.3722 30.7326 3.3722 21.0026C3.3722 11.2726 11.267 3.37779 21 3.37779Z" fill="black"/>
</g>
<defs>
<clipPath id="clip0_1565_15243">
<rect width="42" height="42" fill="white"/>
</clipPath>
</defs>
</svg>
