<svg width="640" height="640" viewBox="0 0 640 640" fill="none" xmlns="http://www.w3.org/2000/svg">
<path d="M207.396 319.955H452.497V375.05H262.538C232.114 375.05 207.442 350.378 207.442 319.955H207.396Z" fill="white"/>
<path d="M279.466 411.501H452.498V466.597H334.608C304.185 466.597 279.513 441.925 279.513 411.501H279.466Z" fill="white"/>
<path d="M396.336 557.078C396.336 557.078 396.382 557.078 396.521 557.032L396.336 557.078Z" fill="white"/>
<path d="M620.058 369.113C620.058 509.542 420.916 553.043 396.522 553.043C402.875 549.704 565.194 470.122 565.194 369.113C565.194 320.788 537.136 282.806 472.719 282.806H193.855C178.643 282.806 164.869 276.637 154.898 266.666C144.927 256.695 138.759 242.922 138.759 227.71H466.226C599.652 227.71 620.104 331.362 620.104 369.113H620.058Z" fill="white"/>
<path d="M396.336 557.078C396.336 557.078 396.382 557.078 396.521 557.032L396.336 557.078Z" fill="white"/>
<path d="M320 51.4783C439.42 51.4783 540.707 129.484 575.583 237.357C606.238 258.922 623.954 289.067 633.044 318.238C632.07 146.133 492.29 6.95654 320 6.95654C147.71 6.95654 6.95654 147.107 6.95654 320.046C6.95654 492.986 147.061 633.044 320 633.044C426.435 633.044 520.487 579.942 577.02 498.736C522.667 544.696 448.046 565.612 413.357 571.826C384.278 582.632 352.835 588.522 320 588.522C171.687 588.522 51.3855 468.313 51.3855 320.046C51.3855 171.78 171.687 51.4783 320 51.4783Z" fill="white"/>
</svg>
